<svg width="16" height="16" viewBox="0 0 16 16" fill="none" xmlns="http://www.w3.org/2000/svg">
<path d="M8 1.5C8.13261 1.5 8.25979 1.55268 8.35355 1.64645C8.44732 1.74021 8.5 1.86739 8.5 2V3.5C8.5 3.63261 8.44732 3.75979 8.35355 3.85355C8.25979 3.94732 8.13261 4 8 4C7.86739 4 7.74022 3.94732 7.64645 3.85355C7.55268 3.75979 7.5 3.63261 7.5 3.5V2C7.5 1.86739 7.55268 1.74021 7.64645 1.64645C7.74022 1.55268 7.86739 1.5 8 1.5ZM5 8C5 7.20435 5.31607 6.44129 5.87868 5.87868C6.44129 5.31607 7.20435 5 8 5C8.79565 5 9.55871 5.31607 10.1213 5.87868C10.6839 6.44129 11 7.20435 11 8C11 8.79565 10.6839 9.55871 10.1213 10.1213C9.55871 10.6839 8.79565 11 8 11C7.20435 11 6.44129 10.6839 5.87868 10.1213C5.31607 9.55871 5 8.79565 5 8ZM12.596 4.11067C12.6843 4.01588 12.7324 3.89052 12.7301 3.76099C12.7278 3.63145 12.6754 3.50786 12.5837 3.41625C12.4921 3.32464 12.3685 3.27217 12.239 3.26988C12.1095 3.2676 11.9841 3.31568 11.8893 3.404L10.8287 4.464C10.7809 4.5101 10.7428 4.56526 10.7165 4.62624C10.6903 4.68723 10.6765 4.75284 10.6759 4.81923C10.6753 4.88562 10.6879 4.95146 10.713 5.01292C10.7381 5.07438 10.7752 5.13022 10.8221 5.17719C10.8691 5.22416 10.9249 5.26131 10.9863 5.28648C11.0477 5.31165 11.1136 5.32433 11.18 5.32379C11.2464 5.32324 11.312 5.30948 11.373 5.28331C11.434 5.25713 11.4892 5.21907 11.5353 5.17133L12.596 4.11067ZM14.5 8C14.5 8.13261 14.4473 8.25979 14.3536 8.35355C14.2598 8.44732 14.1326 8.5 14 8.5H12.5C12.3674 8.5 12.2402 8.44732 12.1464 8.35355C12.0527 8.25979 12 8.13261 12 8C12 7.86739 12.0527 7.74022 12.1464 7.64645C12.2402 7.55268 12.3674 7.5 12.5 7.5H14C14.1326 7.5 14.2598 7.55268 14.3536 7.64645C14.4473 7.74022 14.5 7.86739 14.5 8ZM11.8893 12.596C11.9841 12.6843 12.1095 12.7324 12.239 12.7301C12.3685 12.7278 12.4921 12.6754 12.5837 12.5837C12.6754 12.4921 12.7278 12.3685 12.7301 12.239C12.7324 12.1095 12.6843 11.9841 12.596 11.8893L11.536 10.8287C11.4899 10.7809 11.4347 10.7428 11.3738 10.7165C11.3128 10.6903 11.2472 10.6765 11.1808 10.6759C11.1144 10.6753 11.0485 10.6879 10.9871 10.713C10.9256 10.7381 10.8698 10.7752 10.8228 10.8221C10.7758 10.8691 10.7387 10.9249 10.7135 10.9863C10.6883 11.0477 10.6757 11.1136 10.6762 11.18C10.6768 11.2464 10.6905 11.312 10.7167 11.373C10.7429 11.434 10.7809 11.4892 10.8287 11.5353L11.8893 12.596ZM8 12C8.13261 12 8.25979 12.0527 8.35355 12.1464C8.44732 12.2402 8.5 12.3674 8.5 12.5V14C8.5 14.1326 8.44732 14.2598 8.35355 14.3536C8.25979 14.4473 8.13261 14.5 8 14.5C7.86739 14.5 7.74022 14.4473 7.64645 14.3536C7.55268 14.2598 7.5 14.1326 7.5 14V12.5C7.5 12.3674 7.55268 12.2402 7.64645 12.1464C7.74022 12.0527 7.86739 12 8 12ZM5.172 11.5353C5.26304 11.441 5.31337 11.3147 5.31217 11.1836C5.31097 11.0525 5.25833 10.9271 5.16558 10.8344C5.07283 10.7418 4.9474 10.6892 4.8163 10.6882C4.6852 10.6871 4.55892 10.7375 4.46467 10.8287L3.404 11.8887C3.31288 11.9829 3.26242 12.1092 3.26349 12.2403C3.26457 12.3714 3.3171 12.4968 3.40976 12.5896C3.50242 12.6823 3.6278 12.735 3.7589 12.7362C3.89 12.7374 4.01632 12.687 4.11067 12.596L5.172 11.5353ZM4 8C4 8.13261 3.94732 8.25979 3.85355 8.35355C3.75979 8.44732 3.63261 8.5 3.5 8.5H2C1.86739 8.5 1.74021 8.44732 1.64645 8.35355C1.55268 8.25979 1.5 8.13261 1.5 8C1.5 7.86739 1.55268 7.74022 1.64645 7.64645C1.74021 7.55268 1.86739 7.5 2 7.5H3.5C3.63261 7.5 3.75979 7.55268 3.85355 7.64645C3.94732 7.74022 4 7.86739 4 8ZM4.46467 5.17133C4.55945 5.25965 4.68481 5.30774 4.81435 5.30545C4.94388 5.30316 5.06747 5.25069 5.15908 5.15908C5.25069 5.06747 5.30316 4.94388 5.30545 4.81435C5.30774 4.68481 5.25965 4.55945 5.17133 4.46467L4.11133 3.404C4.01708 3.31288 3.8908 3.26242 3.7597 3.26349C3.6286 3.26457 3.50317 3.3171 3.41042 3.40976C3.31767 3.50242 3.26503 3.6278 3.26383 3.7589C3.26263 3.89 3.31296 4.01632 3.404 4.11067L4.46467 5.17133Z" fill="black"/>
</svg>
